<?xml version="1.0" standalone="no"?>
<!DOCTYPE svg PUBLIC "-//W3C//DTD SVG 20010904//EN"
 "http://www.w3.org/TR/2001/REC-SVG-20010904/DTD/svg10.dtd">
<svg version="1.0" xmlns="http://www.w3.org/2000/svg"
 width="173.000000pt" height="80.000000pt" viewBox="0 0 173.000000 80.000000"
 preserveAspectRatio="xMidYMid meet">

<g transform="translate(0.000000,80.000000) scale(0.100000,-0.100000)"
fill="#000000" stroke="none">
<path d="M278 474 l-3 -186 -53 -2 c-107 -6 -147 -99 -63 -149 59 -35 162 -13
181 39 6 14 10 88 10 165 l0 139 115 0 116 0 -3 -96 -3 -96 -50 -2 c-79 -5
-125 -46 -111 -101 14 -57 124 -85 187 -48 45 27 50 64 47 303 l-3 215 -42 3
c-41 3 -42 2 -45 -30 -2 -25 -8 -33 -23 -33 -15 0 -21 8 -23 33 -3 33 -4 33
-50 30 -33 -2 -46 -7 -44 -17 6 -28 -9 -52 -31 -49 -17 2 -23 11 -25 36 -3 30
-6 32 -42 32 l-40 0 -2 -186z"/>
<path d="M830 545 c0 -96 2 -106 18 -103 13 2 18 16 21 58 l4 55 16 -53 c9
-30 21 -53 26 -53 6 0 17 23 26 53 l16 53 4 -55 c3 -42 8 -56 22 -58 15 -3 17
7 17 103 l0 106 -27 -3 c-22 -2 -30 -10 -38 -41 -6 -21 -15 -38 -20 -38 -5 0
-14 17 -20 38 -8 31 -16 39 -38 41 l-27 3 0 -106z"/>
<path d="M1040 561 c0 -102 10 -121 65 -121 56 0 66 20 63 119 -3 78 -5 86
-23 86 -18 0 -20 -8 -23 -87 -2 -69 -6 -88 -17 -88 -12 0 -15 18 -15 90 0 89
0 90 -25 90 -25 0 -25 -1 -25 -89z"/>
<path d="M1222 634 c-32 -22 -28 -39 24 -94 44 -47 50 -70 18 -70 -8 0 -17 7
-20 15 -9 23 -44 19 -44 -5 0 -23 28 -40 65 -40 76 0 87 54 25 115 -56 55 -52
87 5 49 23 -15 25 -15 32 1 14 39 -61 60 -105 29z"/>
<path d="M1362 548 c3 -95 4 -103 23 -103 19 0 20 7 20 100 0 97 -1 100 -23
103 -23 3 -23 3 -20 -100z"/>
<path d="M1458 639 c-15 -8 -18 -25 -18 -94 0 -73 3 -86 19 -95 48 -25 123 6
108 45 -9 22 -38 19 -44 -5 -3 -11 -12 -20 -19 -20 -11 0 -14 18 -14 75 0 57
3 75 14 75 7 0 16 -9 19 -20 6 -24 35 -26 44 -3 14 36 -66 68 -109 42z"/>
<path d="M832 384 c-20 -14 -22 -24 -22 -99 0 -63 4 -88 16 -99 32 -33 91 -12
96 34 4 36 -29 39 -42 4 -18 -46 -31 -13 -28 67 2 43 7 73 13 72 6 -1 11 -11
13 -23 2 -12 11 -20 22 -20 26 0 33 16 19 42 -22 41 -50 49 -87 22z"/>
<path d="M965 328 c-9 -38 -18 -90 -22 -115 -5 -41 -4 -45 13 -41 11 2 20 13
22 26 5 30 52 32 52 2 0 -20 25 -38 36 -27 7 6 -25 184 -36 206 -4 8 -17 15
-28 16 -18 1 -23 -8 -37 -67z m54 -60 c1 -5 -6 -8 -14 -8 -16 0 -19 9 -8 36 6
16 7 16 14 -2 4 -10 8 -22 8 -26z"/>
<path d="M1107 382 c-29 -32 -18 -70 40 -130 7 -7 13 -20 13 -27 0 -24 -21
-28 -36 -7 -15 22 -44 20 -44 -3 0 -40 73 -60 104 -29 25 25 19 59 -19 104
-34 40 -46 80 -25 80 6 0 13 -7 16 -15 8 -19 44 -20 44 -1 0 42 -64 60 -93 28z"/>
<path d="M1215 391 c-12 -12 -3 -31 15 -31 19 0 20 -7 20 -95 0 -88 1 -95 20
-95 19 0 20 7 20 91 0 82 2 91 20 96 19 5 29 32 13 34 -33 4 -105 4 -108 0z"/>
<path d="M1368 392 c-16 -3 -18 -17 -18 -113 l0 -109 50 0 c38 0 50 4 50 15 0
9 -12 18 -30 21 l-29 6 -3 92 c-3 81 -5 91 -20 88z"/>
<path d="M1466 391 c-2 -5 0 -178 3 -208 1 -8 17 -13 46 -13 38 0 45 3 45 20
0 15 -7 20 -25 20 -21 0 -25 5 -25 30 0 23 4 30 20 30 12 0 20 7 20 16 0 9 -9
18 -20 21 -13 3 -20 14 -20 29 0 19 5 24 25 24 26 0 37 29 13 31 -43 5 -79 5
-82 0z"/>
</g>
</svg>
